<?xml version="1.0" encoding="utf-8"?>
<!-- Generator: Adobe Illustrator 16.0.0, SVG Export Plug-In . SVG Version: 6.00 Build 0)  -->
<!DOCTYPE svg PUBLIC "-//W3C//DTD SVG 1.1//EN" "http://www.w3.org/Graphics/SVG/1.1/DTD/svg11.dtd">
<svg version="1.1" id="Layer_1" xmlns="http://www.w3.org/2000/svg" xmlns:xlink="http://www.w3.org/1999/xlink" x="0px" y="0px"
	 width="600px" height="600px" viewBox="0 0 600 600" enable-background="new 0 0 600 600" xml:space="preserve">
<title>Square Avatar 02</title>
<desc>Created with Sketch.</desc>
<g>
	<g>
		<linearGradient id="SVGID_1_" gradientUnits="userSpaceOnUse" x1="70" y1="300" x2="530" y2="300">
			<stop  offset="0" style="stop-color:#4776E6"/>
			<stop  offset="1" style="stop-color:#8E54E9"/>
		</linearGradient>
		<path fill="url(#SVGID_1_)" d="M512.079,70H87.922C78.024,70,70,78.045,70,87.969v424.063C70,521.955,78.024,530,87.922,530
			h424.156c9.897,0,17.922-8.045,17.922-17.969V87.969C530,78.045,521.977,70,512.079,70z M247.428,105.938h105.144v34.74H247.428
			V105.938z M494.156,494.063H105.844V105.938h105.74v52.708c0,9.924,8.024,17.969,17.923,17.969h140.986
			c9.897,0,17.922-8.045,17.922-17.969v-52.708h105.74L494.156,494.063L494.156,494.063z M318.22,246.911
			c0,9.924-8.023,17.969-17.921,17.969H158.416c-9.898,0-17.923-8.044-17.923-17.969s8.024-17.969,17.923-17.969h141.883
			C310.196,228.942,318.22,236.986,318.22,246.911z M318.22,335.174c0,9.924-8.023,17.969-17.921,17.969H158.416
			c-9.898,0-17.923-8.045-17.923-17.969s8.024-17.969,17.923-17.969h141.883C310.196,317.205,318.22,325.25,318.22,335.174z
			 M318.22,423.604c0,9.924-8.023,17.969-17.921,17.969H158.416c-9.898,0-17.923-8.045-17.923-17.969
			c0-9.925,8.024-17.969,17.923-17.969h141.883C310.196,405.635,318.22,413.679,318.22,423.604z"/>
	</g>
	<g>
		<linearGradient id="SVGID_2_" gradientUnits="userSpaceOnUse" x1="358.7354" y1="243.2676" x2="445.9961" y2="243.2676">
			<stop  offset="0" style="stop-color:#4776E6"/>
			<stop  offset="1" style="stop-color:#8E54E9"/>
		</linearGradient>
		<path fill="url(#SVGID_2_)" d="M391.205,273.605l-26.825-19.161c-6.057-4.326-7.46-12.743-3.133-18.799
			c4.326-6.055,12.743-7.459,18.799-3.133l10.909,7.792l33.568-24.745c5.99-4.416,14.428-3.14,18.844,2.851
			c4.416,5.992,3.14,14.428-2.852,18.845L391.205,273.605z"/>
	</g>
	<g>
		<linearGradient id="SVGID_3_" gradientUnits="userSpaceOnUse" x1="358.7354" y1="332.582" x2="445.9961" y2="332.582">
			<stop  offset="0" style="stop-color:#4776E6"/>
			<stop  offset="1" style="stop-color:#8E54E9"/>
		</linearGradient>
		<path fill="url(#SVGID_3_)" d="M391.205,362.919L364.38,343.76c-6.057-4.327-7.46-12.744-3.133-18.8
			c4.326-6.058,12.743-7.459,18.799-3.134l10.909,7.793l33.568-24.744c5.99-4.416,14.428-3.141,18.844,2.852
			c4.416,5.99,3.14,14.428-2.852,18.844L391.205,362.919z"/>
	</g>
</g>
</svg>
